<svg id="visual" viewBox="0 0 900 600" width="900" height="600" xmlns="http://www.w3.org/2000/svg" xmlns:xlink="http://www.w3.org/1999/xlink" version="1.1"><g stroke-width="1" stroke-linejoin="bevel"><path d="M374 271L498 209L399 182Z" fill="#ff5d39" stroke="#ff5d39"></path><path d="M498 209L419 138L399 182Z" fill="#ff4021" stroke="#ff4021"></path><path d="M591 310L561 186L498 209Z" fill="#ffc5b2" stroke="#ffc5b2"></path><path d="M498 209L501 101L419 138Z" fill="#ffffff" stroke="#ffffff"></path><path d="M374 271L538 337L498 209Z" fill="#ff8a69" stroke="#ff8a69"></path><path d="M374 271L396 387L538 337Z" fill="#ff0000" stroke="#ff0000"></path><path d="M561 186L501 101L498 209Z" fill="#ffc5b2" stroke="#ffc5b2"></path><path d="M380 0L323 123L419 138Z" fill="#ff7551" stroke="#ff7551"></path><path d="M419 138L323 123L399 182Z" fill="#ff5d39" stroke="#ff5d39"></path><path d="M399 182L260 179L374 271Z" fill="#ff9e81" stroke="#ff9e81"></path><path d="M374 271L271 293L396 387Z" fill="#ffd8cb" stroke="#ffd8cb"></path><path d="M396 387L523 385L538 337Z" fill="#ff9e81" stroke="#ff9e81"></path><path d="M583 403L591 310L538 337Z" fill="#ff0000" stroke="#ff0000"></path><path d="M538 337L591 310L498 209Z" fill="#ff0000" stroke="#ff0000"></path><path d="M260 179L271 293L374 271Z" fill="#ffc5b2" stroke="#ffc5b2"></path><path d="M323 123L260 179L399 182Z" fill="#ffece5" stroke="#ffece5"></path><path d="M485 495L583 403L523 385Z" fill="#ffffff" stroke="#ffffff"></path><path d="M523 385L583 403L538 337Z" fill="#ff4021" stroke="#ff4021"></path><path d="M271 293L280 411L396 387Z" fill="#ffece5" stroke="#ffece5"></path><path d="M396 387L485 495L523 385Z" fill="#ffc5b2" stroke="#ffc5b2"></path><path d="M222 436L280 411L271 293Z" fill="#ff4021" stroke="#ff4021"></path><path d="M699 161L605 79L561 186Z" fill="#ff4021" stroke="#ff4021"></path><path d="M561 186L605 79L501 101Z" fill="#ff8a69" stroke="#ff8a69"></path><path d="M501 101L380 0L419 138Z" fill="#ff8a69" stroke="#ff8a69"></path><path d="M532 0L380 0L501 101Z" fill="#ff9e81" stroke="#ff9e81"></path><path d="M323 123L206 67L260 179Z" fill="#ff8a69" stroke="#ff8a69"></path><path d="M280 411L375 486L396 387Z" fill="#ffffff" stroke="#ffffff"></path><path d="M605 79L532 0L501 101Z" fill="#ff4021" stroke="#ff4021"></path><path d="M375 486L485 495L396 387Z" fill="#ffb299" stroke="#ffb299"></path><path d="M165 232L271 293L260 179Z" fill="#ffd8cb" stroke="#ffd8cb"></path><path d="M165 232L174 286L271 293Z" fill="#ffb299" stroke="#ffb299"></path><path d="M206 67L165 232L260 179Z" fill="#ff4021" stroke="#ff4021"></path><path d="M723 271L699 161L561 186Z" fill="#ffd8cb" stroke="#ffd8cb"></path><path d="M605 79L639 0L532 0Z" fill="#ff9e81" stroke="#ff9e81"></path><path d="M723 271L561 186L591 310Z" fill="#ff4021" stroke="#ff4021"></path><path d="M263 0L206 67L323 123Z" fill="#ff9e81" stroke="#ff9e81"></path><path d="M683 428L723 271L591 310Z" fill="#ffb299" stroke="#ffb299"></path><path d="M280 411L309 505L375 486Z" fill="#ff8a69" stroke="#ff8a69"></path><path d="M174 286L222 436L271 293Z" fill="#ff8a69" stroke="#ff8a69"></path><path d="M222 436L309 505L280 411Z" fill="#ffb299" stroke="#ffb299"></path><path d="M375 486L401 600L485 495Z" fill="#ffb299" stroke="#ffb299"></path><path d="M781 78L693 98L699 161Z" fill="#ffece5" stroke="#ffece5"></path><path d="M699 161L693 98L605 79Z" fill="#ff8a69" stroke="#ff8a69"></path><path d="M380 0L263 0L323 123Z" fill="#ffc5b2" stroke="#ffc5b2"></path><path d="M625 533L683 428L583 403Z" fill="#ffece5" stroke="#ffece5"></path><path d="M583 403L683 428L591 310Z" fill="#ff4021" stroke="#ff4021"></path><path d="M672 0L639 0L605 79Z" fill="#ff9e81" stroke="#ff9e81"></path><path d="M693 98L672 0L605 79Z" fill="#ff5d39" stroke="#ff5d39"></path><path d="M133 483L188 479L222 436Z" fill="#ff9e81" stroke="#ff9e81"></path><path d="M222 436L188 479L309 505Z" fill="#ff0000" stroke="#ff0000"></path><path d="M68 398L222 436L174 286Z" fill="#ff4021" stroke="#ff4021"></path><path d="M485 495L625 533L583 403Z" fill="#ff8a69" stroke="#ff8a69"></path><path d="M473 600L625 533L485 495Z" fill="#ffb299" stroke="#ffb299"></path><path d="M263 0L179 0L206 67Z" fill="#ff5d39" stroke="#ff5d39"></path><path d="M206 67L71 205L165 232Z" fill="#ff9e81" stroke="#ff9e81"></path><path d="M289 600L401 600L309 505Z" fill="#ff9e81" stroke="#ff9e81"></path><path d="M309 505L401 600L375 486Z" fill="#ff9e81" stroke="#ff9e81"></path><path d="M790 375L795 284L723 271Z" fill="#ffb299" stroke="#ffb299"></path><path d="M723 271L826 191L699 161Z" fill="#ffece5" stroke="#ffece5"></path><path d="M693 98L781 78L672 0Z" fill="#ffb299" stroke="#ffb299"></path><path d="M790 375L723 271L683 428Z" fill="#ffc5b2" stroke="#ffc5b2"></path><path d="M401 600L473 600L485 495Z" fill="#ffc5b2" stroke="#ffc5b2"></path><path d="M62 66L71 205L206 67Z" fill="#ffb299" stroke="#ffb299"></path><path d="M165 232L62 315L174 286Z" fill="#ffb299" stroke="#ffb299"></path><path d="M625 533L726 477L683 428Z" fill="#ff8a69" stroke="#ff8a69"></path><path d="M726 477L790 375L683 428Z" fill="#ffc5b2" stroke="#ffc5b2"></path><path d="M826 191L781 78L699 161Z" fill="#ff9e81" stroke="#ff9e81"></path><path d="M71 205L62 315L165 232Z" fill="#ff0000" stroke="#ff0000"></path><path d="M68 398L133 483L222 436Z" fill="#ff8a69" stroke="#ff8a69"></path><path d="M188 479L289 600L309 505Z" fill="#ffb299" stroke="#ffb299"></path><path d="M174 600L289 600L188 479Z" fill="#ff7551" stroke="#ff7551"></path><path d="M900 218L826 191L900 276Z" fill="#ffb299" stroke="#ffb299"></path><path d="M795 284L826 191L723 271Z" fill="#ffece5" stroke="#ffece5"></path><path d="M62 315L68 398L174 286Z" fill="#ff8a69" stroke="#ff8a69"></path><path d="M473 600L618 600L625 533Z" fill="#ffc5b2" stroke="#ffc5b2"></path><path d="M625 533L678 600L726 477Z" fill="#ff0000" stroke="#ff0000"></path><path d="M179 0L108 0L206 67Z" fill="#ffd8cb" stroke="#ffd8cb"></path><path d="M108 0L62 66L206 67Z" fill="#ff5d39" stroke="#ff5d39"></path><path d="M71 205L0 270L62 315Z" fill="#ff9e81" stroke="#ff9e81"></path><path d="M618 600L678 600L625 533Z" fill="#ff0000" stroke="#ff0000"></path><path d="M900 405L900 276L790 375Z" fill="#ffb299" stroke="#ffb299"></path><path d="M0 80L0 228L71 205Z" fill="#ffffff" stroke="#ffffff"></path><path d="M62 315L0 418L68 398Z" fill="#ff4021" stroke="#ff4021"></path><path d="M0 228L0 270L71 205Z" fill="#ff8a69" stroke="#ff8a69"></path><path d="M133 483L174 600L188 479Z" fill="#ffd8cb" stroke="#ffd8cb"></path><path d="M105 600L174 600L133 483Z" fill="#ff0000" stroke="#ff0000"></path><path d="M0 500L133 483L68 398Z" fill="#ff8a69" stroke="#ff8a69"></path><path d="M900 100L829 0L781 78Z" fill="#ffffff" stroke="#ffffff"></path><path d="M781 78L829 0L672 0Z" fill="#ffb299" stroke="#ffb299"></path><path d="M900 276L826 191L795 284Z" fill="#ff7551" stroke="#ff7551"></path><path d="M826 191L900 100L781 78Z" fill="#ffffff" stroke="#ffffff"></path><path d="M900 276L795 284L790 375Z" fill="#ffffff" stroke="#ffffff"></path><path d="M62 66L0 80L71 205Z" fill="#ff4021" stroke="#ff4021"></path><path d="M0 0L0 80L62 66Z" fill="#ff8a69" stroke="#ff8a69"></path><path d="M837 483L790 375L726 477Z" fill="#ff8a69" stroke="#ff8a69"></path><path d="M813 600L837 483L726 477Z" fill="#ffc5b2" stroke="#ffc5b2"></path><path d="M0 270L0 418L62 315Z" fill="#ff0000" stroke="#ff0000"></path><path d="M900 218L900 100L826 191Z" fill="#ff5d39" stroke="#ff5d39"></path><path d="M0 500L105 600L133 483Z" fill="#ffffff" stroke="#ffffff"></path><path d="M837 483L900 405L790 375Z" fill="#ff9e81" stroke="#ff9e81"></path><path d="M108 0L0 0L62 66Z" fill="#ffb299" stroke="#ffb299"></path><path d="M0 418L0 500L68 398Z" fill="#ff0000" stroke="#ff0000"></path><path d="M678 600L813 600L726 477Z" fill="#ffc5b2" stroke="#ffc5b2"></path><path d="M837 483L900 482L900 405Z" fill="#ff0000" stroke="#ff0000"></path><path d="M900 100L900 0L829 0Z" fill="#ffc5b2" stroke="#ffc5b2"></path><path d="M900 600L900 482L837 483Z" fill="#ffece5" stroke="#ffece5"></path><path d="M0 500L0 600L105 600Z" fill="#ff8a69" stroke="#ff8a69"></path><path d="M813 600L900 600L837 483Z" fill="#ff5d39" stroke="#ff5d39"></path></g></svg>