<svg id="visual" viewBox="0 0 900 600" width="900" height="600" xmlns="http://www.w3.org/2000/svg" xmlns:xlink="http://www.w3.org/1999/xlink" version="1.1"><rect x="0" y="0" width="900" height="600" fill="#001220"></rect><path d="M0 362L21.5 364.3C43 366.7 86 371.3 128.8 369.3C171.7 367.3 214.3 358.7 257.2 358.5C300 358.3 343 366.7 385.8 378.5C428.7 390.3 471.3 405.7 514.2 414.3C557 423 600 425 642.8 420.7C685.7 416.3 728.3 405.7 771.2 406C814 406.3 857 417.7 878.5 423.3L900 429L900 601L878.5 601C857 601 814 601 771.2 601C728.3 601 685.7 601 642.8 601C600 601 557 601 514.2 601C471.3 601 428.7 601 385.8 601C343 601 300 601 257.2 601C214.3 601 171.7 601 128.8 601C86 601 43 601 21.5 601L0 601Z" fill="#c62368"></path><path d="M0 430L21.5 434.5C43 439 86 448 128.8 448.2C171.7 448.3 214.3 439.7 257.2 429.3C300 419 343 407 385.8 407C428.7 407 471.3 419 514.2 420.3C557 421.7 600 412.3 642.8 410.2C685.7 408 728.3 413 771.2 424.2C814 435.3 857 452.7 878.5 461.3L900 470L900 601L878.5 601C857 601 814 601 771.2 601C728.3 601 685.7 601 642.8 601C600 601 557 601 514.2 601C471.3 601 428.7 601 385.8 601C343 601 300 601 257.2 601C214.3 601 171.7 601 128.8 601C86 601 43 601 21.5 601L0 601Z" fill="#e95667"></path><path d="M0 496L21.5 486.3C43 476.7 86 457.3 128.8 448.8C171.7 440.3 214.3 442.7 257.2 450.3C300 458 343 471 385.8 478.8C428.7 486.7 471.3 489.3 514.2 485.5C557 481.7 600 471.3 642.8 473.7C685.7 476 728.3 491 771.2 489.7C814 488.3 857 470.7 878.5 461.8L900 453L900 601L878.5 601C857 601 814 601 771.2 601C728.3 601 685.7 601 642.8 601C600 601 557 601 514.2 601C471.3 601 428.7 601 385.8 601C343 601 300 601 257.2 601C214.3 601 171.7 601 128.8 601C86 601 43 601 21.5 601L0 601Z" fill="#fa7268"></path><path d="M0 504L21.5 501.8C43 499.7 86 495.3 128.8 500.3C171.7 505.3 214.3 519.7 257.2 527.2C300 534.7 343 535.3 385.8 529.2C428.7 523 471.3 510 514.2 510.8C557 511.7 600 526.3 642.8 532.8C685.7 539.3 728.3 537.7 771.2 537.8C814 538 857 540 878.5 541L900 542L900 601L878.5 601C857 601 814 601 771.2 601C728.3 601 685.7 601 642.8 601C600 601 557 601 514.2 601C471.3 601 428.7 601 385.8 601C343 601 300 601 257.2 601C214.3 601 171.7 601 128.8 601C86 601 43 601 21.5 601L0 601Z" fill="#e95667"></path><path d="M0 571L21.5 565C43 559 86 547 128.8 540.2C171.7 533.3 214.3 531.7 257.2 536C300 540.3 343 550.7 385.8 551.7C428.7 552.7 471.3 544.3 514.2 538.3C557 532.3 600 528.7 642.8 532.8C685.7 537 728.3 549 771.2 553.7C814 558.3 857 555.7 878.5 554.3L900 553L900 601L878.5 601C857 601 814 601 771.2 601C728.3 601 685.7 601 642.8 601C600 601 557 601 514.2 601C471.3 601 428.7 601 385.8 601C343 601 300 601 257.2 601C214.3 601 171.7 601 128.8 601C86 601 43 601 21.5 601L0 601Z" fill="#c62368"></path></svg>